grf
version=1
nRows=12
nColumns=37
inDegrees=no
endheader
time	ground_force_1_vx	ground_force_1_vy	ground_force_1_vz	ground_force_1_px	ground_force_1_py	ground_force_1_pz	ground_moment_1_mx	ground_moment_1_my	ground_moment_1_mz	ground_force_2_vx	ground_force_2_vy	ground_force_2_vz	ground_force_2_px	ground_force_2_py	ground_force_2_pz	ground_moment_2_mx	ground_moment_2_my	ground_moment_2_mz	ground_force_3_vx	ground_force_3_vy	ground_force_3_vz	ground_force_3_px	ground_force_3_py	ground_force_3_pz	ground_moment_3_mx	ground_moment_3_my	ground_moment_3_mz	ground_force_4_vx	ground_force_4_vy	ground_force_4_vz	ground_force_4_px	ground_force_4_py	ground_force_4_pz	ground_moment_4_mx	ground_moment_4_my	ground_moment_4_mz
      0.00000000	      0.00000000	     -0.00000000	      0.00000000	      0.00000000	      0.00000000	      0.00000000	      0.00000000	      0.00000000	      0.00000000	      3.21254873	     20.18464279	   -281.84527588	   -380.07443620	   -957.75614828	      0.00000000	      0.00000000	      0.00000000	   1081.24786456	     -2.12949314	    -19.69703093	   -365.21600342	   -354.70206803	   -716.70383014	      0.00000000	      0.00000000	     -0.00000000	  -1895.49236564	      0.00000000	     -0.00000000	      0.00000000	      0.00000000	      0.00000000	      0.00000000	      0.00000000	      0.00000000	      0.00000000
      0.01000000	      0.00000000	     -0.00000000	      0.00000000	      0.00000000	      0.00000000	      0.00000000	      0.00000000	      0.00000000	      0.00000000	      2.85849214	     20.58537102	   -281.47946167	   -379.63296091	   -958.12061936	      0.00000000	     -0.00000000	      0.00000000	   1067.48573292	     -2.30576793	    -19.91405477	   -363.98074341	   -355.07516411	   -717.27791651	      0.00000000	      0.00000000	     -0.00000000	  -2014.52743836	      0.00000000	     -0.00000000	      0.00000000	      0.00000000	      0.00000000	      0.00000000	      0.00000000	      0.00000000	      0.00000000
      0.02000000	      0.00000000	     -0.00000000	      0.00000000	      0.00000000	      0.00000000	      0.00000000	      0.00000000	      0.00000000	      0.00000000	      3.21157837	     20.36553764	   -280.22723389	   -380.43520415	   -955.82265914	      0.00000000	      0.00000000	      0.00000000	   1182.86465635	     -2.17488376	    -19.82675543	   -364.68310547	   -354.71389400	   -717.19991834	      0.00000000	      0.00000000	     -0.00000000	  -1949.45001811	      0.00000000	     -0.00000000	      0.00000000	      0.00000000	      0.00000000	      0.00000000	      0.00000000	      0.00000000	      0.00000000
      0.03000000	      0.00000000	     -0.00000000	      0.00000000	      0.00000000	      0.00000000	      0.00000000	      0.00000000	      0.00000000	      0.00000000	      3.21157837	     20.36359596	   -281.49871826	   -379.66133768	   -957.36768483	      0.00000000	      0.00000000	      0.00000000	   1191.18116113	     -2.21524897	    -19.74052420	   -365.54684448	   -354.50614997	   -716.01771591	      0.00000000	      0.00000000	     -0.00000000	  -1961.01164927	      0.00000000	     -0.00000000	      0.00000000	      0.00000000	      0.00000000	      0.00000000	      0.00000000	      0.00000000	      0.00000000
      0.04000000	      0.00000000	     -0.00000000	      0.00000000	      0.00000000	      0.00000000	      0.00000000	      0.00000000	      0.00000000	      0.00000000	      3.20949364	     20.10202980	   -280.80279541	   -379.44749996	   -956.92236484	      0.00000000	      0.00000000	      0.00000000	   1035.15085019	     -1.95009652	    -19.78405753	   -365.23080444	   -354.51338413	   -715.98148557	      0.00000000	     -0.00000000	     -0.00000000	  -2065.02584126	      0.00000000	     -0.00000000	      0.00000000	      0.00000000	      0.00000000	      0.00000000	      0.00000000	      0.00000000	      0.00000000
      0.05000000	      0.00000000	     -0.00000000	      0.00000000	      0.00000000	      0.00000000	      0.00000000	      0.00000000	      0.00000000	      0.00000000	      3.25737429	     20.09295845	   -280.61560059	   -379.34555158	   -955.59585967	      0.00000000	      0.00000000	     -0.00000000	   1114.81546699	     -2.12538685	    -19.51726332	   -364.53601074	   -354.64766915	   -716.44660357	      0.00000000	      0.00000000	     -0.00000000	  -1914.24654840	      0.00000000	     -0.00000000	      0.00000000	      0.00000000	      0.00000000	      0.00000000	      0.00000000	      0.00000000	      0.00000000
      0.06000000	      0.00000000	     -0.00000000	      0.00000000	      0.00000000	      0.00000000	      0.00000000	      0.00000000	      0.00000000	      0.00000000	      3.21422672	     19.78430367	   -281.13122559	   -379.76795756	   -956.12504630	      0.00000000	      0.00000000	      0.00000000	   1123.19656293	     -2.21987237	    -19.46969976	   -365.02560425	   -354.27009700	   -716.18406491	      0.00000000	     -0.00000000	     -0.00000000	  -2045.85186656	      0.00000000	     -0.00000000	      0.00000000	      0.00000000	      0.00000000	      0.00000000	      0.00000000	      0.00000000	      0.00000000
      0.07000000	      0.00000000	     -0.00000000	      0.00000000	      0.00000000	      0.00000000	      0.00000000	      0.00000000	      0.00000000	      0.00000000	      3.09095287	     19.82712173	   -281.65521240	   -379.44906113	   -956.03124773	      0.00000000	      0.00000000	      0.00000000	   1188.01936574	     -2.53183307	    -19.51909245	   -362.41937256	   -353.98583930	   -717.72316546	      0.00000000	      0.00000000	     -0.00000000	  -1878.72439490	      0.00000000	     -0.00000000	      0.00000000	      0.00000000	      0.00000000	      0.00000000	      0.00000000	      0.00000000	      0.00000000
      0.08000000	      0.00000000	     -0.00000000	      0.00000000	      0.00000000	      0.00000000	      0.00000000	      0.00000000	      0.00000000	      0.00000000	      2.84509706	     19.74720001	   -281.79946899	   -378.90495013	   -956.84493684	      0.00000000	      0.00000000	      0.00000000	   1028.12008335	     -2.61563720	    -19.38528431	   -363.98532104	   -353.99320680	   -716.54837117	      0.00000000	     -0.00000000	     -0.00000000	  -1880.84457642	      0.00000000	     -0.00000000	      0.00000000	      0.00000000	      0.00000000	      0.00000000	      0.00000000	      0.00000000	      0.00000000
      0.09000000	      0.00000000	     -0.00000000	      0.00000000	      0.00000000	      0.00000000	      0.00000000	      0.00000000	      0.00000000	      0.00000000	      2.98679733	     19.82976151	   -280.58062744	   -379.54770479	   -954.62730309	      0.00000000	      0.00000000	      0.00000000	   1226.85308055	     -2.47206942	    -19.83263577	   -362.05856323	   -353.86526164	   -717.76002971	      0.00000000	      0.00000000	     -0.00000000	  -1970.03182075	      0.00000000	     -0.00000000	      0.00000000	      0.00000000	      0.00000000	      0.00000000	      0.00000000	      0.00000000	      0.00000000
      0.10000000	      0.00000000	     -0.00000000	      0.00000000	      0.00000000	      0.00000000	      0.00000000	      0.00000000	      0.00000000	      0.00000000	      2.61471105	     19.87230492	   -282.03662109	   -378.80149789	   -955.96641511	      0.00000000	      0.00000000	      0.00000000	   1063.31309353	     -2.83552113	    -19.75113475	   -362.78121948	   -353.40882077	   -717.39045000	      0.00000000	      0.00000000	     -0.00000000	  -1951.69879370	      0.00000000	     -0.00000000	      0.00000000	      0.00000000	      0.00000000	      0.00000000	      0.00000000	      0.00000000	      0.00000000
      0.11000000	      0.00000000	     -0.00000000	      0.00000000	      0.00000000	      0.00000000	      0.00000000	      0.00000000	      0.00000000	      0.00000000	      2.71889091	     19.95709801	   -281.66903687	   -379.41162836	   -956.64294496	      0.00000000	      0.00000000	      0.00000000	   1093.52554443	     -2.66833417	    -20.04553402	   -363.99746704	   -353.63156614	   -715.82462818	      0.00000000	      0.00000000	     -0.00000000	  -1947.29191121	      0.00000000	     -0.00000000	      0.00000000	      0.00000000	      0.00000000	      0.00000000	      0.00000000	      0.00000000	      0.00000000
